<svg xmlns="http://www.w3.org/2000/svg" version="1.1" xmlnsXlink="http://www.w3.org/1999/xlink" xmlnssvgjs="http://svgjs.dev/svgjs" viewBox="0 0 14.989967045474451 3.1237722496136637"><g transform="matrix(1,0,0,1,3.7827671325977805,0.582554874806832)"><g><path d=" M 0.18 0.018000000000000016 L 0.18 1.068 L 0.3165 1.068 L 0.3165 0.6045 L 0.3825 0.6045 Q 0.4245 0.6045 0.45225 0.6120000000000001 Q 0.48 0.6195 0.5025000000000001 0.6375000000000001 Q 0.525 0.6555 0.5445 0.684 Q 0.5640000000000001 0.7125000000000001 0.591 0.7545000000000001 L 0.7095 0.93 Q 0.732 0.9645 0.75375 0.9930000000000001 Q 0.7755 1.0215 0.801 1.04175 Q 0.8265 1.062 0.85875 1.074 Q 0.891 1.086 0.936 1.086 Q 0.969 1.086 0.99 1.083 Q 1.0110000000000001 1.08 1.032 1.068 L 1.032 1.0125 Q 1.0245 1.014 1.0170000000000001 1.01475 Q 1.0095 1.0155 1.002 1.0155 Q 0.9705 1.0155 0.9465 1.0065 Q 0.9225 0.9975 0.9015 0.9802500000000001 Q 0.8805000000000001 0.9630000000000001 0.861 0.93825 Q 0.8415 0.9135000000000001 0.8205 0.8820000000000001 Q 0.7575000000000001 0.7905 0.723 0.7357500000000001 Q 0.6885 0.681 0.66825 0.651 Q 0.648 0.621 0.63525 0.6075 Q 0.6225 0.5940000000000001 0.6045 0.5850000000000001 L 0.5895 0.5775000000000001 L 0.5895 0.5715000000000001 Q 0.6615 0.5670000000000001 0.71325 0.54 Q 0.765 0.513 0.798 0.47250000000000003 Q 0.8310000000000001 0.43200000000000005 0.846 0.38475000000000004 Q 0.861 0.3375 0.861 0.2925000000000001 Q 0.861 0.252 0.8452500000000001 0.20400000000000007 Q 0.8295 0.15600000000000003 0.79125 0.11475000000000002 Q 0.753 0.07350000000000001 0.687 0.04574999999999996 Q 0.621 0.018000000000000016 0.5205 0.018000000000000016 L 0.18 0.018000000000000016 M 0.3165 0.08400000000000007 L 0.468 0.08400000000000007 Q 0.525 0.08400000000000007 0.57075 0.10050000000000003 Q 0.6165 0.11699999999999999 0.6495 0.14625 Q 0.6825 0.1755 0.69975 0.21600000000000008 Q 0.717 0.25650000000000006 0.717 0.3045 Q 0.717 0.3450000000000001 0.70125 0.3862500000000001 Q 0.6855 0.4275000000000001 0.654 0.46125000000000005 Q 0.6225 0.495 0.57675 0.516 Q 0.531 0.537 0.47100000000000003 0.537 L 0.3165 0.537 L 0.3165 0.08400000000000007 M 1.2120263671875002 0.018000000000000016 L 1.2120263671875002 0.663 Q 1.2120263671875002 0.7245 1.2240263671875002 0.7987500000000001 Q 1.2360263671875003 0.873 1.2810263671875002 0.9367500000000001 Q 1.3260263671875 1.0005000000000002 1.4145263671875001 1.04325 Q 1.5030263671875002 1.086 1.6560263671875002 1.086 Q 1.7520263671875003 1.086 1.8262763671875002 1.056 Q 1.9005263671875001 1.026 1.9507763671875002 0.9735 Q 2.0010263671875004 0.921 2.0265263671875 0.8512500000000001 Q 2.0520263671875 0.7815000000000001 2.0520263671875 0.7020000000000001 L 2.0520263671875 0.018000000000000016 L 1.9860263671875003 0.018000000000000016 L 1.9860263671875003 0.6525000000000001 Q 1.9860263671875003 0.6855 1.9845263671875002 0.7192500000000001 Q 1.9830263671875001 0.7530000000000001 1.9755263671875003 0.7867500000000001 Q 1.9680263671875 0.8205 1.9522763671875003 0.8535 Q 1.9365263671875002 0.8865000000000001 1.9065263671875001 0.9195000000000001 Q 1.8525263671875 0.9780000000000001 1.7850263671875002 0.9990000000000001 Q 1.7175263671875003 1.02 1.6440263671875002 1.02 Q 1.5810263671875 1.02 1.5322763671875002 1.0005000000000002 Q 1.4835263671875 0.9810000000000001 1.4400263671875002 0.9420000000000001 Q 1.4055263671875 0.912 1.3875263671875002 0.8820000000000001 Q 1.3695263671875002 0.8520000000000001 1.3605263671875 0.8227500000000001 Q 1.3515263671875002 0.7935000000000001 1.3500263671875001 0.7635000000000001 Q 1.3485263671875 0.7335 1.3485263671875 0.7035 L 1.3485263671875 0.018000000000000016 L 1.2120263671875002 0.018000000000000016 M 2.7554824218750005 1.068 L 2.7554824218750005 0.10050000000000003 L 3.157482421875 0.10050000000000003 L 3.157482421875 0.018000000000000016 L 2.216982421875 0.018000000000000016 L 2.216982421875 0.10050000000000003 L 2.618982421875 0.10050000000000003 L 2.618982421875 1.068 L 2.7554824218750005 1.068 M 3.1724597167968756 0.543 Q 3.1724597167968756 0.627 3.2047097167968754 0.7222500000000001 Q 3.2369597167968753 0.8175000000000001 3.3059597167968753 0.8985000000000001 Q 3.3749597167968752 0.9795 3.4814597167968753 1.03275 Q 3.5879597167968753 1.086 3.736459716796875 1.086 Q 3.8369597167968754 1.086 3.9187097167968754 1.06125 Q 4.000459716796875 1.0365 4.065709716796875 0.9945 Q 4.130959716796875 0.9525 4.178959716796875 0.89775 Q 4.226959716796875 0.8430000000000001 4.257709716796875 0.7822500000000001 Q 4.288459716796876 0.7215 4.304209716796875 0.66 Q 4.319959716796875 0.5985 4.319959716796875 0.543 Q 4.319959716796875 0.4590000000000001 4.2854597167968755 0.36375 Q 4.250959716796875 0.26850000000000007 4.178959716796875 0.1875 Q 4.106959716796876 0.10650000000000004 3.9967097167968753 0.05325000000000002 Q 3.8864597167968755 0 3.736459716796875 0 Q 3.5879597167968753 0 3.4814597167968753 0.05249999999999999 Q 3.3749597167968752 0.1050000000000001 3.3059597167968753 0.18525000000000003 Q 3.2369597167968753 0.26550000000000007 3.2047097167968754 0.36150000000000004 Q 3.1724597167968756 0.4575 3.1724597167968756 0.543 M 3.3194597167968753 0.543 Q 3.3194597167968753 0.43800000000000006 3.3517097167968752 0.35025000000000006 Q 3.3839597167968756 0.26250000000000007 3.4402097167968755 0.1995 Q 3.4964597167968754 0.13650000000000007 3.572959716796875 0.10125000000000006 Q 3.6494597167968754 0.06600000000000006 3.7394597167968753 0.06600000000000006 Q 3.8279597167968755 0.06600000000000006 3.9067097167968754 0.10125000000000006 Q 3.9854597167968753 0.13650000000000007 4.044709716796875 0.1995 Q 4.103959716796876 0.26250000000000007 4.138459716796875 0.35025000000000006 Q 4.172959716796876 0.43800000000000006 4.172959716796876 0.543 Q 4.172959716796876 0.6480000000000001 4.138459716796875 0.7357500000000001 Q 4.103959716796876 0.8235000000000001 4.044709716796875 0.8865000000000001 Q 3.9854597167968753 0.9495 3.9067097167968754 0.98475 Q 3.8279597167968755 1.02 3.7394597167968753 1.02 Q 3.6494597167968754 1.02 3.572959716796875 0.98475 Q 3.4964597167968754 0.9495 3.4402097167968755 0.8865000000000001 Q 3.3839597167968756 0.8235000000000001 3.3517097167968752 0.7357500000000001 Q 3.3194597167968753 0.6480000000000001 3.3194597167968753 0.543 M 4.726445068359375 0.546 L 5.354945068359376 0.546 L 5.354945068359376 1.068 L 5.491445068359376 1.068 L 5.491445068359376 0.018000000000000016 L 5.354945068359376 0.018000000000000016 L 5.354945068359376 0.4770000000000001 L 4.726445068359375 0.4770000000000001 L 4.726445068359375 0.018000000000000016 L 4.589945068359375 0.018000000000000016 L 4.589945068359375 1.068 L 4.726445068359375 1.068 L 4.726445068359375 0.546 M 5.866450195312501 0.018000000000000016 L 5.866450195312501 1.068 L 6.544450195312501 1.068 L 6.544450195312501 0.9855 L 6.002950195312501 0.9855 L 6.002950195312501 0.546 L 6.467950195312501 0.546 L 6.467950195312501 0.4770000000000001 L 6.002950195312501 0.4770000000000001 L 6.002950195312501 0.10050000000000003 L 6.544450195312501 0.10050000000000003 L 6.544450195312501 0.018000000000000016 L 5.866450195312501 0.018000000000000016 M 7.367934814453125 0.7590000000000001 L 7.5119348144531255 1.068 L 7.657434814453126 1.068 L 7.168434814453126 0.018000000000000016 L 7.093434814453126 0.018000000000000016 L 6.649434814453126 1.068 L 6.718434814453126 1.068 L 6.850434814453125 0.7590000000000001 L 7.367934814453125 0.7590000000000001 M 7.336434814453126 0.6915 L 6.8789348144531255 0.6915 L 7.094934814453126 0.18600000000000005 L 7.100934814453126 0.18600000000000005 L 7.336434814453126 0.6915 M 7.8974267578125 1.068 L 7.8974267578125 0.018000000000000016 L 8.0339267578125 0.018000000000000016 L 8.0339267578125 0.9855 L 8.575426757812501 0.9855 L 8.575426757812501 1.068 L 7.8974267578125 1.068 M 8.963951660156251 1.068 L 8.963951660156251 0.10050000000000003 L 9.36595166015625 0.10050000000000003 L 9.36595166015625 0.018000000000000016 L 8.42545166015625 0.018000000000000016 L 8.42545166015625 0.10050000000000003 L 8.827451660156251 0.10050000000000003 L 8.827451660156251 1.068 L 8.963951660156251 1.068 M 9.727439941406251 0.546 L 10.355939941406252 0.546 L 10.355939941406252 1.068 L 10.492439941406252 1.068 L 10.492439941406252 0.018000000000000016 L 10.355939941406252 0.018000000000000016 L 10.355939941406252 0.4770000000000001 L 9.727439941406251 0.4770000000000001 L 9.727439941406251 0.018000000000000016 L 9.590939941406251 0.018000000000000016 L 9.590939941406251 1.068 L 9.727439941406251 1.068 L 9.727439941406251 0.546" fill="#FFFFFF" fill-rule="nonzero"></path></g><g><path d=" M 0.44925 1.4344124999999996 L 0.44925 1.9586624999999998 L 0.39675 1.9586624999999998 L 0.39675 1.7134124999999998 L 0.1125 1.7134124999999998 L 0.1125 1.9586624999999998 L 0.06 1.9586624999999998 L 0.06 1.4344124999999996 L 0.1125 1.4344124999999996 L 0.1125 1.6699124999999997 L 0.39675 1.6699124999999997 L 0.39675 1.4344124999999996 L 0.44925 1.4344124999999996 M 0.6292620849609376 1.4771624999999997 L 0.6292620849609376 1.6729124999999998 L 0.8280120849609376 1.6729124999999998 L 0.8280120849609376 1.7164124999999997 L 0.6292620849609376 1.7164124999999997 L 0.6292620849609376 1.9151624999999997 L 0.8505120849609376 1.9151624999999997 L 0.8505120849609376 1.9586624999999998 L 0.5767620849609376 1.9586624999999998 L 0.5767620849609376 1.4336624999999996 L 0.8505120849609376 1.4336624999999996 L 0.8505120849609376 1.4771624999999997 L 0.6292620849609376 1.4771624999999997 M 1.2652551269531251 1.8341624999999997 L 1.0267551269531252 1.8341624999999997 L 0.9810051269531251 1.9586624999999998 L 0.9255051269531251 1.9586624999999998 L 1.116755126953125 1.4411625 L 1.176005126953125 1.4411625 L 1.3665051269531252 1.9586624999999998 L 1.311005126953125 1.9586624999999998 L 1.2652551269531251 1.8341624999999997 M 1.2495051269531252 1.7906624999999998 L 1.146005126953125 1.5071624999999997 L 1.0425051269531251 1.7906624999999998 L 1.2495051269531252 1.7906624999999998 M 1.5104882812500002 1.9159124999999997 L 1.6987382812500003 1.9159124999999997 L 1.6987382812500003 1.9586624999999998 L 1.4579882812500002 1.9586624999999998 L 1.4579882812500002 1.4344124999999996 L 1.5104882812500002 1.4344124999999996 L 1.5104882812500002 1.9159124999999997 M 2.0880036621093754 1.4344124999999996 L 2.0880036621093754 1.4779124999999997 L 1.9425036621093752 1.4779124999999997 L 1.9425036621093752 1.9586624999999998 L 1.8900036621093752 1.9586624999999998 L 1.8900036621093752 1.4779124999999997 L 1.7437536621093752 1.4779124999999997 L 1.7437536621093752 1.4344124999999996 L 2.0880036621093754 1.4344124999999996 M 2.5680183105468752 1.4344124999999996 L 2.5680183105468752 1.9586624999999998 L 2.515518310546875 1.9586624999999998 L 2.515518310546875 1.7134124999999998 L 2.231268310546875 1.7134124999999998 L 2.231268310546875 1.9586624999999998 L 2.178768310546875 1.9586624999999998 L 2.178768310546875 1.4344124999999996 L 2.231268310546875 1.4344124999999996 L 2.231268310546875 1.6699124999999997 L 2.515518310546875 1.6699124999999997 L 2.515518310546875 1.4344124999999996 L 2.5680183105468752 1.4344124999999996 M 2.7052803955078124 1.5577874999999999 Q 2.7390303955078124 1.4966624999999998 2.7975303955078124 1.4625374999999998 Q 2.8560303955078123 1.4284124999999999 2.9280303955078124 1.4284124999999999 Q 3.0157803955078126 1.4284124999999999 3.0784053955078123 1.4700374999999997 Q 3.1410303955078125 1.5116624999999997 3.1695303955078122 1.5874124999999997 L 3.1080303955078126 1.5874124999999997 Q 3.0855303955078126 1.5341624999999999 3.0394053955078126 1.5041624999999996 Q 2.9932803955078127 1.4741624999999998 2.9280303955078124 1.4741624999999998 Q 2.8702803955078124 1.4741624999999998 2.8241553955078125 1.5011624999999997 Q 2.7780303955078125 1.5281624999999996 2.7517803955078124 1.5787874999999998 Q 2.7255303955078123 1.6294124999999997 2.7255303955078123 1.6961624999999998 Q 2.7255303955078123 1.7629124999999997 2.7517803955078124 1.8131624999999998 Q 2.7780303955078125 1.8634124999999997 2.8241553955078125 1.8904124999999998 Q 2.8702803955078124 1.9174124999999997 2.9280303955078124 1.9174124999999997 Q 2.9932803955078127 1.9174124999999997 3.0394053955078126 1.8877874999999997 Q 3.0855303955078126 1.8581624999999997 3.1080303955078126 1.8056624999999997 L 3.1695303955078122 1.8056624999999997 Q 3.1410303955078125 1.8806624999999997 3.0780303955078123 1.9219124999999997 Q 3.0150303955078126 1.9631624999999997 2.9280303955078124 1.9631624999999997 Q 2.8560303955078123 1.9631624999999997 2.7975303955078124 1.9290374999999997 Q 2.7390303955078124 1.8949124999999998 2.7052803955078124 1.8341624999999997 Q 2.6715303955078125 1.7734124999999998 2.6715303955078125 1.6961624999999998 Q 2.6715303955078125 1.6189124999999998 2.7052803955078124 1.5577874999999999 M 3.5850274658203123 1.8341624999999997 L 3.346527465820312 1.8341624999999997 L 3.300777465820312 1.9586624999999998 L 3.2452774658203123 1.9586624999999998 L 3.4365274658203124 1.4411625 L 3.4957774658203125 1.4411625 L 3.686277465820312 1.9586624999999998 L 3.6307774658203122 1.9586624999999998 L 3.5850274658203123 1.8341624999999997 M 3.569277465820312 1.7906624999999998 L 3.465777465820312 1.5071624999999997 L 3.3622774658203123 1.7906624999999998 L 3.569277465820312 1.7906624999999998 M 4.0567606201171875 1.9586624999999998 L 3.927010620117187 1.7396624999999997 L 3.830260620117187 1.7396624999999997 L 3.830260620117187 1.9586624999999998 L 3.777760620117187 1.9586624999999998 L 3.777760620117187 1.4344124999999996 L 3.935260620117187 1.4344124999999996 Q 4.023010620117187 1.4344124999999996 4.068385620117187 1.4764124999999997 Q 4.113760620117187 1.5184124999999997 4.113760620117187 1.5866624999999996 Q 4.113760620117187 1.6436624999999998 4.081135620117188 1.6837874999999998 Q 4.048510620117187 1.7239124999999997 3.984760620117187 1.7359124999999997 L 4.119760620117187 1.9586624999999998 L 4.0567606201171875 1.9586624999999998 M 3.830260620117187 1.6969124999999998 L 3.936010620117187 1.6969124999999998 Q 3.997510620117187 1.6969124999999998 4.028635620117187 1.6669124999999998 Q 4.059760620117187 1.6369124999999998 4.059760620117187 1.5866624999999996 Q 4.059760620117187 1.5349124999999997 4.029760620117187 1.5067874999999997 Q 3.999760620117187 1.4786624999999998 3.935260620117187 1.4786624999999998 L 3.830260620117187 1.4786624999999998 L 3.830260620117187 1.6969124999999998 M 4.277991943359375 1.4771624999999997 L 4.277991943359375 1.6729124999999998 L 4.476741943359375 1.6729124999999998 L 4.476741943359375 1.7164124999999997 L 4.277991943359375 1.7164124999999997 L 4.277991943359375 1.9151624999999997 L 4.499241943359375 1.9151624999999997 L 4.499241943359375 1.9586624999999998 L 4.2254919433593745 1.9586624999999998 L 4.2254919433593745 1.4336624999999996 L 4.499241943359375 1.4336624999999996 L 4.499241943359375 1.4771624999999997 L 4.277991943359375 1.4771624999999997 M 5.335475097656251 1.4411625 L 5.335475097656251 1.9586624999999998 L 5.282975097656251 1.9586624999999998 L 5.282975097656251 1.5454124999999999 L 5.098475097656251 1.9586624999999998 L 5.06022509765625 1.9586624999999998 L 4.87572509765625 1.5469124999999997 L 4.87572509765625 1.9586624999999998 L 4.82322509765625 1.9586624999999998 L 4.82322509765625 1.4411625 L 4.87872509765625 1.4411625 L 5.078975097656251 1.8896624999999998 L 5.2792250976562505 1.4411625 L 5.335475097656251 1.4411625 M 5.765960083007814 1.8341624999999997 L 5.5274600830078136 1.8341624999999997 L 5.481710083007814 1.9586624999999998 L 5.426210083007813 1.9586624999999998 L 5.617460083007813 1.4411625 L 5.676710083007813 1.4411625 L 5.867210083007813 1.9586624999999998 L 5.811710083007814 1.9586624999999998 L 5.765960083007814 1.8341624999999997 M 5.750210083007813 1.7906624999999998 L 5.646710083007814 1.5071624999999997 L 5.543210083007813 1.7906624999999998 L 5.750210083007813 1.7906624999999998 M 6.263193237304688 1.4659124999999997 Q 6.325443237304689 1.4974124999999998 6.358443237304688 1.5566624999999998 Q 6.3914432373046886 1.6159124999999999 6.3914432373046886 1.6976624999999999 Q 6.3914432373046886 1.7786624999999998 6.358443237304688 1.8375374999999998 Q 6.325443237304689 1.8964124999999998 6.263193237304688 1.9275374999999997 Q 6.200943237304688 1.9586624999999998 6.113943237304689 1.9586624999999998 L 5.958693237304688 1.9586624999999998 L 5.958693237304688 1.4344124999999996 L 6.113943237304689 1.4344124999999996 Q 6.200943237304688 1.4344124999999996 6.263193237304688 1.4659124999999997 M 6.280818237304689 1.8577874999999997 Q 6.338193237304688 1.8004124999999997 6.338193237304688 1.6976624999999999 Q 6.338193237304688 1.5941624999999997 6.280818237304689 1.5360374999999997 Q 6.223443237304688 1.4779124999999997 6.113943237304689 1.4779124999999997 L 6.011193237304688 1.4779124999999997 L 6.011193237304688 1.9151624999999997 L 6.113943237304689 1.9151624999999997 Q 6.223443237304688 1.9151624999999997 6.280818237304689 1.8577874999999997 M 6.548188476562501 1.4771624999999997 L 6.548188476562501 1.6729124999999998 L 6.746938476562502 1.6729124999999998 L 6.746938476562502 1.7164124999999997 L 6.548188476562501 1.7164124999999997 L 6.548188476562501 1.9151624999999997 L 6.7694384765625015 1.9151624999999997 L 6.7694384765625015 1.9586624999999998 L 6.495688476562501 1.9586624999999998 L 6.495688476562501 1.4336624999999996 L 6.7694384765625015 1.4336624999999996 L 6.7694384765625015 1.4771624999999997 L 6.548188476562501 1.4771624999999997 M 7.161296630859377 1.9459124999999997 Q 7.121921630859377 1.9279124999999997 7.099421630859377 1.8956624999999998 Q 7.076921630859377 1.8634124999999997 7.075421630859377 1.8236624999999997 L 7.130921630859377 1.8236624999999997 Q 7.134671630859377 1.8619124999999999 7.1646716308593765 1.8907874999999998 Q 7.194671630859377 1.9196624999999998 7.252421630859377 1.9196624999999998 Q 7.3056716308593765 1.9196624999999998 7.336796630859377 1.8922874999999997 Q 7.367921630859377 1.8649124999999998 7.367921630859377 1.8229124999999997 Q 7.367921630859377 1.7891624999999998 7.350671630859377 1.7685374999999997 Q 7.333421630859377 1.7479124999999998 7.307921630859377 1.7377874999999998 Q 7.2824216308593765 1.7276624999999997 7.237421630859377 1.7156624999999996 Q 7.184921630859377 1.7014124999999998 7.154171630859377 1.6879124999999997 Q 7.123421630859377 1.6744124999999999 7.101671630859377 1.6459124999999997 Q 7.079921630859377 1.6174124999999997 7.079921630859377 1.5686624999999998 Q 7.079921630859377 1.5281624999999996 7.100921630859377 1.4962874999999998 Q 7.121921630859377 1.4644124999999997 7.160171630859377 1.4464124999999997 Q 7.198421630859377 1.4284124999999999 7.247921630859377 1.4284124999999999 Q 7.320671630859377 1.4284124999999999 7.365296630859377 1.4640374999999997 Q 7.409921630859377 1.4996624999999997 7.416671630859377 1.5559124999999998 L 7.359671630859377 1.5559124999999998 Q 7.354421630859377 1.5236624999999997 7.324421630859377 1.4985374999999999 Q 7.294421630859377 1.4734124999999998 7.243421630859377 1.4734124999999998 Q 7.196171630859377 1.4734124999999998 7.1646716308593765 1.4985374999999999 Q 7.133171630859377 1.5236624999999997 7.133171630859377 1.5671624999999998 Q 7.133171630859377 1.6001624999999997 7.150421630859377 1.6204124999999998 Q 7.167671630859377 1.6406624999999997 7.193546630859377 1.6511624999999999 Q 7.219421630859377 1.6616624999999998 7.263671630859377 1.6736624999999998 Q 7.314671630859377 1.6879124999999997 7.346171630859377 1.7017874999999998 Q 7.377671630859377 1.7156624999999996 7.3994216308593765 1.7441624999999998 Q 7.4211716308593765 1.7726624999999998 7.4211716308593765 1.8206624999999996 Q 7.4211716308593765 1.8574124999999997 7.401671630859377 1.8904124999999998 Q 7.382171630859377 1.9234124999999997 7.343921630859377 1.9436624999999998 Q 7.3056716308593765 1.9639124999999997 7.252421630859377 1.9639124999999997 Q 7.200671630859377 1.9639124999999997 7.161296630859377 1.9459124999999997 M 7.582437744140627 1.4344124999999996 L 7.582437744140627 1.9586624999999998 L 7.529937744140627 1.9586624999999998 L 7.529937744140627 1.4344124999999996 L 7.582437744140627 1.4344124999999996 M 8.221440673828127 1.4411625 L 8.221440673828127 1.9586624999999998 L 8.168940673828127 1.9586624999999998 L 8.168940673828127 1.5454124999999999 L 7.984440673828128 1.9586624999999998 L 7.946190673828127 1.9586624999999998 L 7.761690673828127 1.5469124999999997 L 7.761690673828127 1.9586624999999998 L 7.709190673828127 1.9586624999999998 L 7.709190673828127 1.4411625 L 7.764690673828127 1.4411625 L 7.964940673828128 1.8896624999999998 L 8.165190673828128 1.4411625 L 8.221440673828127 1.4411625 M 8.63917565917969 1.6939124999999997 Q 8.594925659179689 1.7351624999999997 8.506425659179689 1.7351624999999997 L 8.40067565917969 1.7351624999999997 L 8.40067565917969 1.9586624999999998 L 8.34817565917969 1.9586624999999998 L 8.34817565917969 1.4344124999999996 L 8.506425659179689 1.4344124999999996 Q 8.594175659179689 1.4344124999999996 8.63880065917969 1.4756624999999999 Q 8.68342565917969 1.5169124999999997 8.68342565917969 1.5851624999999998 Q 8.68342565917969 1.6526624999999997 8.63917565917969 1.6939124999999997 M 8.62942565917969 1.5851624999999998 Q 8.62942565917969 1.5326624999999998 8.600175659179689 1.5056624999999997 Q 8.57092565917969 1.4786624999999998 8.506425659179689 1.4786624999999998 L 8.40067565917969 1.4786624999999998 L 8.40067565917969 1.6901624999999998 L 8.506425659179689 1.6901624999999998 Q 8.62942565917969 1.6901624999999998 8.62942565917969 1.5851624999999998 M 8.831195068359378 1.9159124999999997 L 9.019445068359378 1.9159124999999997 L 9.019445068359378 1.9586624999999998 L 8.778695068359378 1.9586624999999998 L 8.778695068359378 1.4344124999999996 L 8.831195068359378 1.4344124999999996 L 8.831195068359378 1.9159124999999997 M 9.154460449218753 1.4771624999999997 L 9.154460449218753 1.6729124999999998 L 9.353210449218752 1.6729124999999998 L 9.353210449218752 1.7164124999999997 L 9.154460449218753 1.7164124999999997 L 9.154460449218753 1.9151624999999997 L 9.375710449218753 1.9151624999999997 L 9.375710449218753 1.9586624999999998 L 9.101960449218753 1.9586624999999998 L 9.101960449218753 1.4336624999999996 L 9.375710449218753 1.4336624999999996 L 9.375710449218753 1.4771624999999997 L 9.154460449218753 1.4771624999999997" fill="#FFFFFF" fill-rule="nonzero"></path></g><g clip-path="url(&quot;#SvgjsClipPath1001&quot;)"><g clip-path="url(&quot;#SvgjsClipPath1000&quot;)"><path d=" M -1.508804858711885 1.8758804693272992 C -1.5924091903497968 1.9594929296614798 -1.7058058765827762 2.006466604153835 -1.824046004254211 2.006466604153835 C -1.9422861319256448 2.006466604153835 -2.0556828181586244 1.9594929296614798 -2.1392871497965373 1.8758804693272992 L -3.117430227118249 0.8975513776737334 C -3.291560270814787 0.7234078653703507 -3.291560270814787 0.44107973151256785 -3.117430227118249 0.2669362192091852 L -2.9332228916298053 0.08286175110063801 C -2.8496497068447004 -0.0008093680749153634 -2.7362413478085026 -0.04782355486132872 -2.61798174608748 -0.04782355486132872 C -2.4997221443664572 -0.04782355486132872 -2.3863137853302594 -0.0008093680749153634 -2.3027406005451545 0.08286175110063801 L -1.3245443762714835 1.061057975374308 C -1.1504558402964036 1.235177169936129 -1.1504558402964036 1.5174476453731165 -1.3245443762714835 1.6915668399349375 Z" fill="#382d5e" transform="matrix(1,0,0,1,0,0)" fill-rule="nonzero"></path></g><g clip-path="url(&quot;#SvgjsClipPath1000&quot;)"><path d=" M -1.3452982610113096 0.08286175110063801 L -2.6381775878317404 1.3769900312920953 L -2.231364244064779 1.783750228107099 L -2.231364244064779 1.783750228107099 L -2.1392871497965373 1.8759070428032802 C -2.0556828181586244 1.9595195031374604 -1.9422861319256448 2.0064931776298156 -1.824046004254211 2.0064931776298156 C -1.7058058765827762 2.0064931776298156 -1.5924091903497968 1.9595195031374604 -1.508804858711885 1.8759070428032802 L -0.5306086344382139 0.897577951149712 C -0.3564785907416743 0.7234344388463294 -0.3564785907416743 0.4411063049885444 -0.5306086344382139 0.2669627926851638 L -0.7148691168786159 0.08288832457661663 C -0.7984296972402731 -0.0007830906578800007 -0.9118272765836082 -0.047800737856138656 -1.0300781805669428 -0.04780572229822037 C -1.1483290845502774 -0.04781070674030411 -1.2617306272106963 -0.0008026194443405757 -1.3452982610113096 0.08286175110063801 Z" fill="#8321bf" transform="matrix(1,0,0,1,0,0)" fill-rule="nonzero"></path></g></g></g><defs><clipPath id="SvgjsClipPath1001"><path d=" M -3.248012288080483 -0.047800030289534834 h 2.8480122880804832 v 2.0542625605790694 h -2.8480122880804832 Z"></path></clipPath><clipPath id="SvgjsClipPath1000"><path d=" M -3.248012288080483 -0.04780003028953471 L -0.3999999999999999 -0.04780003028953471 L -0.3999999999999999 2.0064625302895345 L -3.248012288080483 2.0064625302895345 Z"></path></clipPath></defs></svg>