<?xml version="1.0" encoding="utf-8"?>
<svg viewBox="296.639 147.02 471.173 357.665" xmlns="http://www.w3.org/2000/svg">
  <defs>
    <clipPath id="SvgjsClipPath1002">
      <path d=" M -3.248012288080483 -0.047800030289534834 h 2.8480122880804832 v 2.0542625605790694 h -2.8480122880804832 Z"/>
    </clipPath>
    <clipPath id="SvgjsClipPath1000">
      <path d=" M -3.248012288080483 -0.04780003028953471 L -0.3999999999999999 -0.04780003028953471 L -0.3999999999999999 2.0064625302895345 L -3.248012288080483 2.0064625302895345 Z"/>
    </clipPath>
  </defs>
  <g clip-path="url(#SvgjsClipPath1002)" transform="matrix(165.440035, 0, 0, 174.108764, 833.990285, 155.341975)">
    <g clip-path="url(#SvgjsClipPath1000)">
      <path d=" M -1.508804858711885 1.8758804693272992 C -1.5924091903497968 1.9594929296614798 -1.7058058765827762 2.006466604153835 -1.824046004254211 2.006466604153835 C -1.9422861319256448 2.006466604153835 -2.0556828181586244 1.9594929296614798 -2.1392871497965373 1.8758804693272992 L -3.117430227118249 0.8975513776737334 C -3.291560270814787 0.7234078653703507 -3.291560270814787 0.44107973151256785 -3.117430227118249 0.2669362192091852 L -2.9332228916298053 0.08286175110063801 C -2.8496497068447004 -0.0008093680749153634 -2.7362413478085026 -0.04782355486132872 -2.61798174608748 -0.04782355486132872 C -2.4997221443664572 -0.04782355486132872 -2.3863137853302594 -0.0008093680749153634 -2.3027406005451545 0.08286175110063801 L -1.3245443762714835 1.061057975374308 C -1.1504558402964036 1.235177169936129 -1.1504558402964036 1.5174476453731165 -1.3245443762714835 1.6915668399349375 Z" transform="matrix(1,0,0,1,0,0)" fill-rule="nonzero" fill="#382d5e"/>
    </g>
    <g clip-path="url(#SvgjsClipPath1000)">
      <path d=" M -1.3452982610113096 0.08286175110063801 L -2.6381775878317404 1.3769900312920953 L -2.231364244064779 1.783750228107099 L -2.231364244064779 1.783750228107099 L -2.1392871497965373 1.8759070428032802 C -2.0556828181586244 1.9595195031374604 -1.9422861319256448 2.0064931776298156 -1.824046004254211 2.0064931776298156 C -1.7058058765827762 2.0064931776298156 -1.5924091903497968 1.9595195031374604 -1.508804858711885 1.8759070428032802 L -0.5306086344382139 0.897577951149712 C -0.3564785907416743 0.7234344388463294 -0.3564785907416743 0.4411063049885444 -0.5306086344382139 0.2669627926851638 L -0.7148691168786159 0.08288832457661663 C -0.7984296972402731 -0.0007830906578800007 -0.9118272765836082 -0.047800737856138656 -1.0300781805669428 -0.04780572229822037 C -1.1483290845502774 -0.04781070674030411 -1.2617306272106963 -0.0008026194443405757 -1.3452982610113096 0.08286175110063801 Z" transform="matrix(1,0,0,1,0,0)" fill-rule="nonzero" fill="#8321bf"/>
    </g>
  </g>
</svg>